HIERARCHY
ROOT hip
{
  OFFSET 0 0 0
  CHANNELS 6 Xposition Yposition Zposition Zrotation Yrotation Xrotation
  JOINT abdomen
  {
    OFFSET 0 20.6881 -0.73152
    CHANNELS 3 Zrotation Xrotation Yrotation
    JOINT chest
    {
      OFFSET 0 11.7043 -0.48768
      CHANNELS 3 Zrotation Xrotation Yrotation
      JOINT neck
      {
        OFFSET 0 22.1894 -2.19456
        CHANNELS 3 Zrotation Xrotation Yrotation
        JOINT head
        {
          OFFSET -0.24384 7.07133 1.2192
          CHANNELS 3 Zrotation Xrotation Yrotation
          JOINT leftEye
          {
            OFFSET 4.14528 8.04674 8.04672
            CHANNELS 3 Zrotation Xrotation Yrotation
            End Site
            {
              OFFSET 1 0 0
            }
          }
          JOINT rightEye
          {
            OFFSET -3.6576 8.04674 8.04672
            CHANNELS 3 Zrotation Xrotation Yrotation
            End Site
            {
              OFFSET 1 0 0
            }
          }
        }
      }
      JOINT rCollar
      {
        OFFSET -2.68224 19.2634 -4.8768
        CHANNELS 3 Zrotation Xrotation Yrotation
        JOINT rShldr
        {
          OFFSET -8.77824 -1.95073 1.46304
          CHANNELS 3 Zrotation Xrotation Yrotation
          JOINT rForeArm
          {
            OFFSET -28.1742 -1.7115 0.48768
            CHANNELS 3 Zrotation Xrotation Yrotation
            JOINT rHand
            {
              OFFSET -22.5879 0.773209 7.07136
              CHANNELS 3 Zrotation Xrotation Yrotation
              JOINT rThumb1
              {
                OFFSET -1.2192 -0.487915 3.41376
                CHANNELS 3 Zrotation Xrotation Yrotation
                JOINT rThumb2
                {
                  OFFSET -3.37035 -0.52449 3.41376
                  CHANNELS 3 Zrotation Xrotation Yrotation
                  End Site
                  {
                    OFFSET -1.78271 -1.18214 1.43049
                  }
                }
              }
              JOINT rIndex1
              {
                OFFSET -7.75947 0.938293 5.60832
                CHANNELS 3 Zrotation Xrotation Yrotation
                JOINT rIndex2
                {
                  OFFSET -2.54057 -0.884171 1.56538
                  CHANNELS 3 Zrotation Xrotation Yrotation
                  End Site
                  {
                    OFFSET -1.62519 -0.234802 1.16502
                  }
                }
              }
              JOINT rMid1
              {
                OFFSET -8.24714 1.18213 3.41376
                CHANNELS 3 Zrotation Xrotation Yrotation
                JOINT rMid2
                {
                  OFFSET -3.10165 -0.590103 1.0647
                  CHANNELS 3 Zrotation Xrotation Yrotation
                  End Site
                  {
                    OFFSET -2.48547 -0.328903 0.83742
                  }
                }
              }
              JOINT rRing1
              {
                OFFSET -8.82822 0.546677 1.51678
                CHANNELS 3 Zrotation Xrotation Yrotation
                JOINT rRing2
                {
                  OFFSET -2.60934 -0.819778 -0.0198488
                  CHANNELS 3 Zrotation Xrotation Yrotation
                  End Site
                  {
                    OFFSET -2.33842 -0.294052 0.168128
                  }
                }
              }
              JOINT rPinky1
              {
                OFFSET -8.27202 -0.0477905 -0.4584
                CHANNELS 3 Zrotation Xrotation Yrotation
                JOINT rPinky2
                {
                  OFFSET -1.82734 -0.647385 -0.700984
                  CHANNELS 3 Zrotation Xrotation Yrotation
                  End Site
                  {
                    OFFSET -1.69225 -0.51767 -0.607171
                  }
                }
              }
            }
          }
        }
      }
      JOINT lCollar
      {
        OFFSET 2.68224 19.2634 -4.8768
        CHANNELS 3 Zrotation Xrotation Yrotation
        JOINT lShldr
        {
          OFFSET 8.77824 -1.95073 1.46304
          CHANNELS 3 Zrotation Xrotation Yrotation
          JOINT lForeArm
          {
            OFFSET 28.1742 -1.7115 0.48768
            CHANNELS 3 Zrotation Xrotation Yrotation
            JOINT lHand
            {
              OFFSET 22.5879 0.773209 7.07136
              CHANNELS 3 Zrotation Xrotation Yrotation
              JOINT lThumb1
              {
                OFFSET 1.2192 -0.487915 3.41376
                CHANNELS 3 Zrotation Xrotation Yrotation
                JOINT lThumb2
                {
                  OFFSET 3.37035 -0.52449 3.41376
                  CHANNELS 3 Zrotation Xrotation Yrotation
                  End Site
                  {
                    OFFSET 1.78271 -1.18214 1.43049
                  }
                }
              }
              JOINT lIndex1
              {
                OFFSET 7.75947 0.938293 5.60832
                CHANNELS 3 Zrotation Xrotation Yrotation
                JOINT lIndex2
                {
                  OFFSET 2.54057 -0.884171 1.56538
                  CHANNELS 3 Zrotation Xrotation Yrotation
                  End Site
                  {
                    OFFSET 1.62519 -0.234802 1.16502
                  }
                }
              }
              JOINT lMid1
              {
                OFFSET 8.24714 1.18213 3.41376
                CHANNELS 3 Zrotation Xrotation Yrotation
                JOINT lMid2
                {
                  OFFSET 3.10165 -0.590103 1.0647
                  CHANNELS 3 Zrotation Xrotation Yrotation
                  End Site
                  {
                    OFFSET 2.48547 -0.328903 0.83742
                  }
                }
              }
              JOINT lRing1
              {
                OFFSET 8.82822 0.546677 1.51678
                CHANNELS 3 Zrotation Xrotation Yrotation
                JOINT lRing2
                {
                  OFFSET 2.60934 -0.819778 -0.0198488
                  CHANNELS 3 Zrotation Xrotation Yrotation
                  End Site
                  {
                    OFFSET 2.33842 -0.294052 0.168128
                  }
                }
              }
              JOINT lPinky1
              {
                OFFSET 8.27202 -0.0477905 -0.4584
                CHANNELS 3 Zrotation Xrotation Yrotation
                JOINT lPinky2
                {
                  OFFSET 1.82734 -0.647385 -0.700984
                  CHANNELS 3 Zrotation Xrotation Yrotation
                  End Site
                  {
                    OFFSET 1.69225 -0.51767 -0.607171
                  }
                }
              }
            }
          }
        }
      }
    }
  }
  JOINT rButtock
  {
    OFFSET -8.77824 4.35084 1.2192
    CHANNELS 3 Zrotation Xrotation Yrotation
    JOINT rThigh
    {
      OFFSET 0 -1.70687 -2.19456
      CHANNELS 3 Zrotation Xrotation Yrotation
      JOINT rShin
      {
        OFFSET 0 -36.8199 0.73152
        CHANNELS 3 Zrotation Xrotation Yrotation
        JOINT rFoot
        {
          OFFSET 0.73152 -45.1104 -5.12064
          CHANNELS 3 Zrotation Xrotation Yrotation
          End Site
          {
            OFFSET -1.1221 -3.69964 12.103
          }
        }
      }
    }
  }
  JOINT lButtock
  {
    OFFSET 8.77824 4.35084 1.2192
    CHANNELS 3 Zrotation Xrotation Yrotation
    JOINT lThigh
    {
      OFFSET 0 -1.70687 -2.19456
      CHANNELS 3 Zrotation Xrotation Yrotation
      JOINT lShin
      {
        OFFSET 0 -36.8199 0.73152
        CHANNELS 3 Zrotation Xrotation Yrotation
        JOINT lFoot
        {
          OFFSET -0.73152 -45.1104 -5.12064
          CHANNELS 3 Zrotation Xrotation Yrotation
          End Site
          {
            OFFSET 1.1221 -3.69964 12.103
          }
        }
      }
    }
  }
}
MOTION
Frames:	5
Frame Time:	0.00833333
63.8188 82.6293 -29.2648 544.548 -143.65 -897.955 -2.54611 -2.06791 -1.76924 -5.03334 -10.2114 -0.947384 -5.55825 19.7559 0.820866 17.7042 -14.2822 3.06707 -0.0 0.0 0.0 -0.0 0.0 0.0 3.5884e-14 6.70859e-14 8.17306e-13 97.7182 35.7733 -23.1271 -27.2686 -27.2826 62.9305 -0.00860874 2.64063 0.371382 -1.10192e-09 2.88439e-09 -5.63117e-11 -1.90935e-09 5.00028e-09 -9.08161e-11 -1.10192e-09 2.88439e-09 -5.63326e-11 7.73091 5.47488 0.417314 -1.10192e-09 2.88439e-09 -5.63164e-11 2.90554 0.965183 0.102902 -1.10192e-09 2.88439e-09 -5.63123e-11 10.2786 0.731801 0.0259123 -1.10192e-09 2.8844e-09 -5.63089e-11 2.22167 -0.733487 -0.20892 3.57989e-14 6.70799e-14 8.16992e-13 -81.783 -31.7185 -8.74716 21.6291 -15.2287 -42.726 1.62595 33.6454 -5.36824 -1.25441e-09 -3.83615e-09 6.90686e-10 -2.14535e-09 -6.50194e-09 1.23349e-09 -1.25442e-09 -3.83615e-09 6.90693e-10 -7.73091 5.47488 -0.417314 -1.25441e-09 -3.83614e-09 6.90684e-10 -2.90554 0.965183 -0.102902 -1.25442e-09 -3.83614e-09 6.90682e-10 -10.2786 0.731801 -0.0259123 -1.25441e-09 -3.83615e-09 6.90672e-10 -2.22167 -0.733487 0.20892 -2.03217e-16 0.0 -3.88251e-19 -3.94888 -8.2561 -10.1904 -0.437466 46.6467 1.06891 -2.27923 -2.3907 -13.6447 2.03217e-16 0.0 3.88251e-19 -2.41537 -28.8255 15.6156 0.390777 44.2514 -1.06989 6.73338 -14.0609 17.9624
63.7935 82.9566 -30.9455 542.404 -140.385 -896.268 -0.268933 -2.17397 -2.06693 -5.2215 -10.1062 -1.03552 -5.13303 19.4776 2.0297 16.9644 -14.3608 5.37026 -0.0 0.0 0.0 -0.0 0.0 0.0 4.91581e-14 7.07699e-14 8.36685e-13 96.0297 37.457 -21.8123 -27.3711 -27.6675 63.5355 -0.00700608 2.38921 0.335978 -1.08817e-09 2.82386e-09 -2.23739e-10 -1.886e-09 4.8971e-09 -3.80096e-10 -1.08816e-09 2.82386e-09 -2.23758e-10 7.73091 5.47488 0.417314 -1.08817e-09 2.82386e-09 -2.23742e-10 2.90554 0.965183 0.102902 -1.08816e-09 2.82386e-09 -2.23739e-10 10.2786 0.731801 0.0259123 -1.08817e-09 2.82387e-09 -2.23736e-10 2.22167 -0.733487 -0.20892 4.90945e-14 7.07652e-14 8.36387e-13 -80.3924 -33.0131 -7.84997 20.9625 -14.2726 -41.0709 1.68736 34.2008 -5.48093 -1.3292e-09 -4.58421e-09 6.76644e-10 -2.27553e-09 -7.78819e-09 1.21269e-09 -1.32921e-09 -4.5842e-09 6.7665e-10 -7.73091 5.47488 -0.417314 -1.3292e-09 -4.58419e-09 6.76641e-10 -2.90554 0.965183 -0.102902 -1.3292e-09 -4.58419e-09 6.76638e-10 -10.2786 0.731801 -0.0259123 -1.3292e-09 -4.5842e-09 6.76628e-10 -2.22167 -0.733487 0.20892 -2.03217e-16 0.0 -3.88251e-19 -1.40456 -6.6232 -9.56258 -0.335757 43.0053 0.997571 -1.91569 -1.47035 -12.9569 2.03217e-16 0.0 3.88251e-19 1.22183 -30.6946 17.4096 0.420741 45.6579 -1.15539 6.78834 -12.7242 19.1321
63.7399 83.2994 -32.7852 540.319 -136.944 -894.597 1.29358 -2.22868 -2.28591 -5.13755 -10.0946 -1.08694 -4.7677 19.1336 3.23508 16.4438 -14.557 7.71416 -0.0 0.0 0.0 -0.0 0.0 0.0 4.11939e-14 -1.35428e-14 5.63252e-13 94.1991 39.0685 -20.0908 -27.47 -28.0604 64.165 -0.00546918 2.13126 0.299665 -7.07994e-10 1.94779e-09 -4.29741e-10 -1.22728e-09 3.37917e-09 -7.38047e-10 -7.07992e-10 1.9478e-09 -4.29759e-10 7.73091 5.47488 0.417314 -7.07997e-10 1.94779e-09 -4.29743e-10 2.90554 0.965183 0.102902 -7.07986e-10 1.94779e-09 -4.29741e-10 10.2786 0.731801 0.0259123 -7.07993e-10 1.9478e-09 -4.29737e-10 2.22167 -0.733487 -0.20892 4.11271e-14 -1.35459e-14 5.62965e-13 -78.8783 -34.2878 -6.98388 20.3802 -13.483 -39.6774 1.78538 35.044 -5.65561 -1.00627e-09 -5.07983e-09 1.32802e-11 -1.738e-09 -8.71661e-09 5.77283e-11 -1.00627e-09 -5.07983e-09 1.32844e-11 -7.73091 5.47488 -0.417314 -1.00627e-09 -5.07983e-09 1.32771e-11 -2.90554 0.965183 -0.102902 -1.00627e-09 -5.07982e-09 1.3274e-11 -10.2786 0.731801 -0.0259123 -1.00626e-09 -5.07983e-09 1.32648e-11 -2.22167 -0.733487 0.20892 -2.03217e-16 0.0 -3.88251e-19 0.576374 -5.71075 -8.63595 -0.247227 39.6265 0.978698 -1.90276 -2.05182 -12.4537 2.03217e-16 0.0 3.88251e-19 5.11374 -33.1961 19.8305 0.471595 47.7347 -1.24826 6.62096 -10.6672 20.4679
63.7676 83.5049 -34.8047 538.267 -133.307 -892.634 2.52431 -2.23678 -2.48404 -4.86194 -10.1643 -1.12176 -4.43725 18.7402 4.472 16.0785 -14.839 10.1616 -0.0 0.0 0.0 -0.0 0.0 0.0 1.80679e-14 -1.56884e-13 8.22192e-14 92.0635 40.6761 -17.9643 -27.5642 -28.4595 64.8159 -0.00400742 1.83822 0.25843 -4.45868e-11 3.97863e-10 -6.75386e-10 -7.7632e-11 6.92936e-10 -1.16599e-09 -4.45894e-11 3.97876e-10 -6.75403e-10 7.73091 5.47488 0.417314 -4.45907e-11 3.9787e-10 -6.75389e-10 2.90554 0.965183 0.102902 -4.45789e-11 3.9787e-10 -6.75387e-10 10.2786 0.731801 0.0259123 -4.45866e-11 3.97869e-10 -6.75383e-10 2.22167 -0.733487 -0.20892 1.79847e-14 -1.56885e-13 8.19428e-14 -77.1799 -35.5518 -6.04939 19.8861 -12.8591 -38.4541 1.90634 36.0295 -5.86509 -4.29213e-10 -5.5044e-09 -1.06131e-09 -7.7406e-10 -9.57384e-09 -1.81584e-09 -4.29221e-10 -5.50441e-09 -1.06131e-09 -7.73091 5.47488 -0.417314 -4.29215e-10 -5.50441e-09 -1.06131e-09 -2.90554 0.965183 -0.102902 -4.29219e-10 -5.50441e-09 -1.06132e-09 -10.2786 0.731801 -0.0259123 -4.29204e-10 -5.5044e-09 -1.06132e-09 -2.22167 -0.733487 0.20892 -2.03217e-16 0.0 -3.88251e-19 2.31715 -5.33638 -7.40925 -0.156124 36.2816 0.990063 -2.09938 -3.66227 -12.085 2.03217e-16 0.0 3.88251e-19 9.68573 -36.1226 22.9562 0.549161 50.3892 -1.3607 6.20362 -8.11928 21.8754
64.0542 83.5418 -36.8286 536.357 -129.734 -890.424 3.5204 -2.23231 -2.57044 -4.48759 -10.266 -1.11965 -4.1153 18.3526 5.70016 15.7818 -15.1426 12.6098 -0.0 0.0 0.0 -0.0 0.0 0.0 -7.76049e-15 -2.63701e-13 -3.7784e-13 89.7137 42.2677 -15.6301 -27.6637 -28.8979 65.5173 -0.00281831 1.53791 0.216188 6.02447e-10 -1.17397e-09 -9.05735e-10 1.04355e-09 -2.03134e-09 -1.56758e-09 6.02439e-10 -1.17396e-09 -9.05752e-10 7.73091 5.47488 0.417314 6.02442e-10 -1.17396e-09 -9.05738e-10 2.90554 0.965183 0.102902 6.02455e-10 -1.17397e-09 -9.05737e-10 10.2786 0.731801 0.0259123 6.02446e-10 -1.17397e-09 -9.05732e-10 2.22167 -0.733487 -0.20892 -7.85821e-15 -2.63701e-13 -3.78105e-13 -75.344 -36.8251 -5.01543 19.4594 -12.3471 -37.3879 2.02362 36.9248 -6.06134 1.46141e-10 -5.39308e-09 -1.98693e-09 1.91347e-10 -9.4964e-09 -3.43265e-09 1.46131e-10 -5.3931e-09 -1.98694e-09 -7.73091 5.47488 -0.417314 1.46137e-10 -5.3931e-09 -1.98693e-09 -2.90554 0.965183 -0.102902 1.46133e-10 -5.3931e-09 -1.98694e-09 -10.2786 0.731801 -0.0259123 1.46153e-10 -5.39308e-09 -1.98695e-09 -2.22167 -0.733487 0.20892 -2.03217e-16 0.0 -3.88251e-19 3.79617 -5.40882 -6.18314 -0.072343 33.4171 1.01522 -2.31028 -5.68433 -11.3077 2.03217e-16 0.0 3.88251e-19 14.8256 -38.8882 26.6243 0.645146 53.1112 -1.48431 5.67037 -5.73471 23.1108
